<svg version="1.1" xmlns="http://www.w3.org/2000/svg" xmlns:xlink="http://www.w3.org/1999/xlink" width="328.16244" height="97.62438" viewBox="0,0,328.16244,97.62438"><g transform="translate(-76.67467,-125.66992)"><g data-paper-data="{&quot;isPaintingLayer&quot;:true}" fill-rule="nonzero" stroke-linecap="butt" stroke-linejoin="miter" stroke-miterlimit="10" stroke-dasharray="" stroke-dashoffset="0" style="mix-blend-mode: normal"><text transform="translate(81.91329,195.2688) scale(1.49675,1.49675)" font-size="40" xml:space="preserve" fill="#000000" fill-rule="nonzero" stroke="#000000" stroke-width="7" stroke-linecap="butt" stroke-linejoin="miter" stroke-miterlimit="10" stroke-dasharray="" stroke-dashoffset="0" font-family="Sans Serif" font-weight="normal" text-anchor="start" style="mix-blend-mode: normal"><tspan x="0" dy="0">Lemonoids</tspan></text><text transform="translate(81.91332,195.2688) scale(1.49675,1.49675)" font-size="40" xml:space="preserve" fill="#ffffff" fill-rule="nonzero" stroke="none" stroke-width="1" stroke-linecap="butt" stroke-linejoin="miter" stroke-miterlimit="10" stroke-dasharray="" stroke-dashoffset="0" font-family="Sans Serif" font-weight="normal" text-anchor="start" style="mix-blend-mode: normal"><tspan x="0" dy="0">Lemonoids</tspan></text><path d="M186.81184,180.03494l33.97541,-33.97541l36.59278,36.59278l-33.97541,33.97541z" fill="none" stroke="none" stroke-width="3.5"/><path d="M243.52315,200.29501c-2.21755,2.21755 -5.39151,0.9296 -8.50672,1.59708c-8.44882,1.81024 -18.92605,0.78005 -27.40066,-7.69455c-7.22757,-7.22757 -8.30154,-18.51622 -8.13572,-26.23935c0.1003,-4.67149 -1.06428,-6.5655 2.03824,-9.66803c3.79506,-3.79506 5.19244,-3.51813 11.11475,-2.85851c6.92364,0.77115 18.5409,2.70425 24.79263,8.95599c6.68257,6.68257 7.90487,16.59322 8.29965,23.89158c0.29046,5.36984 1.28714,8.52649 -2.20217,12.0158z" fill="#ffff00" stroke="#000000" stroke-width="3.5"/><path d="M315.8437,200.40207c-2.1046,2.1046 -5.1169,0.88226 -8.07345,1.51573c-8.0185,1.71804 -17.9621,0.74032 -26.00507,-7.30265c-6.85946,-6.85946 -7.87873,-17.57313 -7.72135,-24.90291c0.09519,-4.43356 -1.01008,-6.23111 1.93442,-9.17561c3.60178,-3.60178 4.92798,-3.33894 10.54865,-2.71291c6.57101,0.73187 17.59657,2.56652 23.52989,8.49984c6.34221,6.34221 7.50225,15.74808 7.87692,22.67472c0.27567,5.09634 1.22157,8.09221 -2.09001,11.4038z" fill="#ffff00" stroke="#000000" stroke-width="3.5"/><path d="M84.59459,150.46771v-16.51652h249.24924v16.51652z" fill="#edec4d" stroke="#000000" stroke-width="3.5"/><path d="M146.65165,221.5443v-16.51652h249.24925v16.51652z" data-paper-data="{&quot;index&quot;:null}" fill="#edec4d" stroke="#000000" stroke-width="3.5"/></g></g></svg>