<svg version="1.1" xmlns="http://www.w3.org/2000/svg" xmlns:xlink="http://www.w3.org/1999/xlink" width="9.19701" height="9.20539" viewBox="0,0,9.19701,9.20539"><g transform="translate(-235.4015,-195.34187)"><g data-paper-data="{&quot;isPaintingLayer&quot;:true}" fill="#00cccc" fill-rule="nonzero" stroke="none" stroke-width="1" stroke-linecap="butt" stroke-linejoin="miter" stroke-miterlimit="10" stroke-dasharray="" stroke-dashoffset="0" style="mix-blend-mode: normal"><path d="M244.5985,199.32935v0.56957c0,0.33774 -0.07812,0.81787 -0.24531,1.51101c-0.06875,0.32244 -0.2,0.6543 -0.38905,0.98733c-0.00312,0.00471 -0.00625,0.00824 -0.00781,0.01294c-0.33593,0.57075 -0.88904,1.06853 -1.64528,1.47923c-0.80623,0.43659 -1.64059,0.65783 -2.48276,0.65783c-0.34062,0 -0.66561,-0.04001 -0.97029,-0.11768c-1.07966,-0.26243 -1.93277,-0.76139 -2.53432,-1.48276c-0.12968,-0.15887 -0.25781,-0.35539 -0.41718,-0.64253c-0.00312,-0.00706 -0.00625,-0.01294 -0.01094,-0.02001c-0.19687,-0.37187 -0.30156,-0.6696 -0.32968,-0.93791c-0.00469,-0.0459 -0.02187,-0.15651 -0.07812,-0.37304c-0.02031,-0.0812 -0.03125,-0.16357 -0.03125,-0.24595v-0.50367c-0.06875,-0.19888 -0.075,-0.41188 -0.00781,-0.62252c0.025,-0.0812 0.06094,-0.16004 0.10469,-0.23301c0,-0.14357 0.03281,-0.28714 0.09531,-0.42365c0.01719,-0.05884 0.04062,-0.1165 0.06875,-0.17417c0.00156,-0.00118 0.02969,-0.06119 0.06875,-0.22712c0.04687,-0.20359 0.13437,-0.46601 0.26562,-0.79669c0.00156,-0.00353 0.00312,-0.00824 0.00469,-0.01177c0.25468,-0.61664 0.76873,-1.20151 1.57184,-1.78755c0.00625,-0.00471 0.01094,-0.00824 0.01719,-0.01177c0.40624,-0.28949 0.87498,-0.47307 1.39372,-0.54839c0.09375,-0.01294 0.18906,-0.02001 0.28593,-0.02236c0.05937,-0.00118 0.21718,-0.00824 0.47499,-0.01883c0.00937,0 0.01875,-0.00118 0.02812,-0.00118c0.76092,-0.02354 1.48122,0.09885 2.14839,0.36128c0.7703,0.29655 1.37966,0.74256 1.81246,1.32625c0.20468,0.27655 0.37968,0.61193 0.53593,1.02852c0.18281,0.4719 0.27343,0.8873 0.27343,1.26859z"/></g></g></svg>