<svg version="1.1" xmlns="http://www.w3.org/2000/svg" xmlns:xlink="http://www.w3.org/1999/xlink" width="1282.79048" height="1224.61604" viewBox="0,0,1282.79048,1224.61604"><defs><radialGradient cx="240" cy="180" r="51.94423" gradientUnits="userSpaceOnUse" id="color-1"><stop offset="0" stop-color="#ffffff"/><stop offset="1" stop-color="#ffffff" stop-opacity="0"/></radialGradient></defs><g transform="translate(372.29048,400.07829)"><g data-paper-data="{&quot;isPaintingLayer&quot;:true}" fill-rule="nonzero" stroke="none" stroke-width="0" stroke-linecap="butt" stroke-linejoin="miter" stroke-miterlimit="10" stroke-dasharray="" stroke-dashoffset="0" style="mix-blend-mode: normal"><path d="M263.85685,180c0,13.23102 -10.68107,23.95688 -23.85685,23.95688c-13.17577,0 -23.85685,-10.72586 -23.85685,-23.95688c0,-13.23102 10.68107,-23.95688 23.85685,-23.95688c13.17577,0 23.85685,10.72586 23.85685,23.95688z" fill="#ffffff"/><path d="M291.72734,180c0,28.68801 -23.15912,51.94423 -51.72734,51.94423c-28.56822,0 -51.72734,-23.25623 -51.72734,-51.94423c0,-28.68801 23.15912,-51.94423 51.72734,-51.94423c28.56822,0 51.72734,23.25623 51.72734,51.94423z" fill="url(#color-1)"/><path d="M255.5,190.5v-11l655,-14v53z" fill="#ffffff"/><path d="M235.14314,170.39108l7.62085,1.11863l-36.68838,653.02805l-36.71864,-5.38975z" fill="#ffffff"/><path d="M245.64698,177.61182l1.54098,5.35651l-612.05373,228.3621l-7.42471,-25.80864z" fill="#ffffff"/><path d="M240.98888,183.76574l-9.57343,5.41752l-334.77305,-563.15895l46.12651,-26.1026z" fill="#ffffff"/><path d="M232.90546,189.02847l-3.28426,-4.50338l496.6444,-424.38586l15.82415,21.69812z" fill="#ffffff"/><path d="M229.2697,178.38705l5.7789,-5.09244l474.6083,450.04292l-27.84381,24.53631z" fill="#ffffff"/></g></g></svg>