<svg version="1.1" xmlns="http://www.w3.org/2000/svg" xmlns:xlink="http://www.w3.org/1999/xlink" width="328.16244" height="183.69004" viewBox="0,0,328.16244,183.69004"><defs><linearGradient x1="40.27831" y1="204.02301" x2="319.72167" y2="204.02301" gradientTransform="translate(-80.55661,-396.50853) scale(2,2)" gradientUnits="userSpaceOnUse" id="color-1"><stop offset="0" stop-color="#84e7ff"/><stop offset="1" stop-color="#9183ff"/></linearGradient><linearGradient x1="191.4378" y1="239.08578" x2="168.56217" y2="261.28761" gradientUnits="userSpaceOnUse" id="color-2"><stop offset="0" stop-color="#6500ff"/><stop offset="1" stop-color="#00caff"/></linearGradient></defs><g transform="translate(-16.67467,-179.60427)"><g data-paper-data="{&quot;isPaintingLayer&quot;:true}" fill-rule="nonzero" stroke-linecap="butt" stroke-linejoin="miter" stroke-miterlimit="10" stroke-dasharray="" stroke-dashoffset="0" style="mix-blend-mode: normal"><text transform="translate(21.91329,335.2688) scale(1.49675,1.49675)" font-size="40" xml:space="preserve" fill="#000000" fill-rule="nonzero" stroke="#000000" stroke-width="7" stroke-linecap="butt" stroke-linejoin="miter" stroke-miterlimit="10" stroke-dasharray="" stroke-dashoffset="0" font-family="Sans Serif" font-weight="normal" text-anchor="start" style="mix-blend-mode: normal"><tspan x="0" dy="0">Lemonoids</tspan></text><text transform="translate(21.91332,335.2688) scale(1.49675,1.49675)" font-size="40" xml:space="preserve" fill="#ffffff" fill-rule="nonzero" stroke="none" stroke-width="1" stroke-linecap="butt" stroke-linejoin="miter" stroke-miterlimit="10" stroke-dasharray="" stroke-dashoffset="0" font-family="Sans Serif" font-weight="normal" text-anchor="start" style="mix-blend-mode: normal"><tspan x="0" dy="0">Lemonoids</tspan></text><path d="M126.81184,320.03494l33.97541,-33.97541l36.59278,36.59278l-33.97541,33.97541z" fill="none" stroke="none" stroke-width="3.5"/><path d="M183.52315,340.29501c-2.21755,2.21755 -5.39151,0.9296 -8.50672,1.59708c-8.44882,1.81024 -18.92605,0.78005 -27.40066,-7.69455c-7.22757,-7.22757 -8.30154,-18.51622 -8.13572,-26.23935c0.1003,-4.67149 -1.06428,-6.5655 2.03824,-9.66803c3.79506,-3.79506 5.19244,-3.51813 11.11475,-2.85851c6.92364,0.77115 18.5409,2.70425 24.79263,8.95599c6.68257,6.68257 7.90487,16.59322 8.29965,23.89158c0.29046,5.36984 1.28714,8.52649 -2.20217,12.0158z" fill="#ffff00" stroke="#000000" stroke-width="3.5"/><path d="M255.8437,340.40207c-2.1046,2.1046 -5.1169,0.88226 -8.07345,1.51573c-8.0185,1.71804 -17.9621,0.74032 -26.00507,-7.30265c-6.85946,-6.85946 -7.87873,-17.57313 -7.72135,-24.90291c0.09519,-4.43356 -1.01008,-6.23111 1.93442,-9.17561c3.60178,-3.60178 4.92798,-3.33894 10.54865,-2.71291c6.57101,0.73187 17.59657,2.56652 23.52989,8.49984c6.34221,6.34221 7.50225,15.74808 7.87692,22.67472c0.27567,5.09634 1.22157,8.09221 -2.09001,11.4038z" fill="#ffff00" stroke="#000000" stroke-width="3.5"/><path d="M24.59459,290.46771v-16.51652h249.24924v16.51652z" fill="#edec4d" stroke="#000000" stroke-width="3.5"/><path d="M86.65165,361.5443v-16.51652h249.24925v16.51652z" data-paper-data="{&quot;index&quot;:null}" fill="#edec4d" stroke="#000000" stroke-width="3.5"/><text transform="translate(40.27831,198.25427) scale(0.5,0.5)" font-size="40" xml:space="preserve" fill="url(#color-1)" fill-rule="nonzero" stroke="none" stroke-width="1" stroke-linecap="butt" stroke-linejoin="miter" stroke-miterlimit="10" stroke-dasharray="" stroke-dashoffset="0" font-family="&quot;Franklin Gothic&quot;, Sans Serif" font-weight="normal" text-anchor="start" style="mix-blend-mode: normal"><tspan x="0" dy="0">Made By L12 Intecactive Studios</tspan><tspan x="0" dy="46.150000000000006px">         Copyright© L12 2024</tspan></text><path d="M148.08358,262.07738v-23.37263h7.506v17.39544h11.99154v5.97719zM184.09537,256.84336h5.32958v5.23403h-17.629v-5.23403h5.5366v-10.5636h-5.5366v-3.93879c1.51819,-0.09201 3.21686,-0.49545 5.09601,-1.2103c1.87915,-0.71132 3.5212,-1.53234 4.92614,-2.46307h2.27728zM207.41492,239.16127c1.34832,0.57684 2.39052,1.39786 3.12661,2.46307c0.73609,1.06521 1.10414,2.30028 1.10414,3.70522c0,1.31293 -0.32912,2.502 -0.98735,3.56721c-0.6547,1.06521 -1.48103,2.00478 -2.479,2.81873c-0.99443,0.81395 -2.36398,1.81014 -4.10866,2.9886c-0.9732,0.63346 -1.76591,1.17668 -2.37814,1.62966h10.22387v5.74363h-19.36483v-1.62966c0,-1.19969 0.2778,-2.2702 0.83341,-3.21155c0.55561,-0.94135 1.36601,-1.88623 2.43122,-2.83465c1.08644,-0.95196 2.64886,-2.24366 4.68727,-3.87509c1.63143,-1.2917 2.77449,-2.27728 3.42919,-2.95675c0.65823,-0.67947 0.98735,-1.34655 0.98735,-2.00124c0,-0.70424 -0.24418,-1.29347 -0.73255,-1.76768c-0.48483,-0.47775 -1.21561,-0.71663 -2.19235,-0.71663c-1.0192,0 -1.82253,0.2955 -2.40999,0.88649c-0.58746,0.58746 -0.88118,1.35717 -0.88118,2.30913v0.67947h-6.05151c-0.02123,-0.18048 -0.03185,-0.42998 -0.03185,-0.74848c0,-2.44538 0.85464,-4.37584 2.56393,-5.7914c1.70929,-1.41556 4.19536,-2.12334 7.45822,-2.12334c1.83315,0 3.42388,0.28842 4.7722,0.86526z" fill="url(#color-2)" stroke="none" stroke-width="1"/></g></g></svg>